<?xml version="1.0" encoding="iso-8859-1" standalone="no"?>
<!DOCTYPE svg PUBLIC "-//W3C//DTD SVG 20001102//EN" "http://www.w3.org/TR/2000/CR-SVG-20001102/DTD/svg-20001102.dtd">
<!--Generated by Ulead PhotoImpact-->
<svg width="750px" height="550px">
	<defs>
		<filter x="25" y="16" id="SHADOW1" width="442" height="517" filterUnits="userSpaceOnUse">
			<feGaussianBlur in="SourceAlpha" result="blur" stdDeviation="2"/>
			<feOffset dx="6" dy="4" in="blur" result="offsetBlur"/>
			<feFlood style="flood-opacity:0.47;flood-color:#000000" result="flood"/>
			<feComposite in="flood" in2="offsetBlur" result="colorBlur" operator="in"/>
			<feComposite in="SourceGraphic" in2="colorBlur" operator="over"/>
		</filter>
		<linearGradient id="GRADIENTCOLOR3" x1="352" x2="352" y1="37" y2="170" gradientUnits="userSpaceOnUse">
			<stop style="stop-color:#c20071" offset="0%"/>
			<stop style="stop-color:#a50060" offset="36.08%"/>
			<stop style="stop-color:#ff4000" offset="80%"/>
			<stop style="stop-color:#ff9000" offset="97.65%"/>
			<stop style="stop-color:#c30072" offset="99.22%"/>
			<stop style="stop-color:#c20071" offset="100%"/>
		</linearGradient>
		<linearGradient id="GRADIENTCOLOR4" x1="202" x2="202" y1="62" y2="417" gradientUnits="userSpaceOnUse">
			<stop style="stop-color:#c10071" offset="0%"/>
			<stop style="stop-color:#a50060" offset="16.47%"/>
			<stop style="stop-color:#ff4000" offset="31.37%"/>
			<stop style="stop-color:#ff8000" offset="61.57%"/>
			<stop style="stop-color:#ff9000" offset="66.67%"/>
			<stop style="stop-color:#ffce3c" offset="79.22%"/>
			<stop style="stop-color:#ffce3c" offset="95.69%"/>
			<stop style="stop-color:#c30072" offset="99.22%"/>
			<stop style="stop-color:#c10071" offset="100%"/>
		</linearGradient>
		<filter x="89" y="274" id="SHADOW19" width="65" height="70" filterUnits="userSpaceOnUse">
			<feGaussianBlur in="SourceAlpha" result="blur" stdDeviation="3"/>
			<feFlood style="flood-opacity:0.69;flood-color:#000000" result="flood"/>
			<feComposite in="flood" in2="blur" result="colorBlur" operator="in"/>
		</filter>
		<path d="m 139.48 293.38l -26.5 41.72 -7.89 0 -9.02 -9.58 31.57 -43.41 11.84 11.27 z" id="PATH19" style="fill:#6c4500"/>
		<linearGradient id="GRADIENTCOLOR21" x1="113" x2="396" y1="314" y2="314" gradientUnits="userSpaceOnUse">
			<stop style="stop-color:#e10083" offset="0%"/>
			<stop style="stop-color:#87004f" offset="100%"/>
		</linearGradient>
		<filter x="112" y="211" id="SHADOW21" width="286" height="209" filterUnits="userSpaceOnUse">
			<feGaussianBlur in="SourceAlpha" result="blur" stdDeviation="2"/>
			<feOffset dx="0" dy="6" in="blur" result="offsetBlur"/>
			<feFlood style="flood-opacity:0.56;flood-color:#000000" result="flood"/>
			<feComposite in="flood" in2="offsetBlur" result="colorBlur" operator="in"/>
			<feComposite in="SourceGraphic" in2="colorBlur" operator="over"/>
		</filter>
		<filter x="254" y="157" id="SHADOW23" width="133" height="105" filterUnits="userSpaceOnUse">
			<feGaussianBlur in="SourceAlpha" result="blur" stdDeviation="2"/>
			<feOffset dx="-5" dy="3" in="blur" result="offsetBlur"/>
			<feFlood style="flood-opacity:0.5;flood-color:#000000" result="flood"/>
			<feComposite in="flood" in2="offsetBlur" result="colorBlur" operator="in"/>
			<feComposite in="SourceGraphic" in2="colorBlur" operator="over"/>
		</filter>
	</defs>
	<rect id="BGCOLOR" style="fill:#ffcc00" width="750" height="550"/>
	<path d="m 274.44 23.29l 0 16.7 25.98 -7.42 54.74 15.77c 0 0 51.03 -2.78 60.3 -4.64 9.28 -1.86 13.92 0.93 14.84 8.35 0.93 7.42 8.35 89.99 8.35 89.99 0 0 11.13 3.71 13.92 10.21 2.78 6.49 0 14.84 0 14.84 0 0 -3.71 6.49 -8.35 7.42 -4.64 0.93 -10.21 2.78 -10.21 2.78l -25.05 47.32c 0 0 12.06 13.92 12.06 21.34 0 7.42 -11.13 23.19 -11.13 23.19 0 0 -3.71 35.25 -3.71 40.82 0 5.57 9.28 13.92 10.21 22.27 0.93 8.35 0.93 17.63 0.93 22.27 0 4.64 16.7 4.64 18.56 13.92 1.86 9.28 3.71 48.24 3.71 56.59 0 8.35 -1.86 27.83 -1.86 27.83 0 0 13.92 15.77 14.84 22.27 0.93 6.49 -0.93 33.4 -0.93 33.4l -49.17 12.99c 0 0 -86.28 -6.49 -104.84 -6.49 -18.56 0 -79.79 -2.78 -106.69 -7.42 -26.9 -4.64 -101.13 -12.99 -115.04 -12.99 -13.92 0 -27.83 1.86 -27.83 1.86l -15.77 -19.48 0 -39.89 6.49 -12.06 -3.71 -9.28 -1.86 -13.92 7.42 -6.49 -5.57 -25.98c 0 0 5.57 -38.97 5.57 -48.24 0 -9.28 -4.64 -32.47 -0.93 -45.46 3.71 -12.99 15.77 -34.33 14.84 -48.24 -0.93 -13.92 -5.57 -38.04 -6.49 -50.1 -0.93 -12.06 5.57 -49.17 6.49 -67.73 0.93 -18.56 -1.86 -44.53 -1.86 -44.53l 41.75 -5.57 -2.78 -21.34 182.77 -14.84 z" id="PATH1" style="fill:#ffffff;filter:url(#SHADOW1)"/>
	<path d="m 389.77 329.46c 0 0 6.2 -7.89 10.15 -7.89 3.95 0 3.95 6.2 5.64 10.15 1.69 3.95 3.95 11.84 3.95 17.48 0 5.64 -1.69 7.89 -2.25 11.27 -0.56 3.38 -1.69 6.2 0.56 9.02 2.25 2.82 7.89 -0.56 13.53 3.38 5.64 3.95 7.89 14.66 7.89 20.86 0 6.2 0 38.9 0 38.9 0 0 -180.39 -22.55 -195.62 -24.8 -15.22 -2.25 -171.37 -1.69 -182.65 2.82l -1.13 -15.78c 9.02 -3.38 86.81 -10.71 113.87 -7.89 27.06 2.82 132.48 12.97 156.72 14.09 24.24 1.13 47.35 -2.25 52.43 -12.97 5.07 -10.71 11.84 -25.93 12.97 -37.21 1.13 -11.27 3.95 -21.42 3.95 -21.42 z" id="PATH2" style="fill:#150185"/>
	<path d="m 275.34 48.52l 0.56 36.64 10.71 56.37 14.09 -33.82c 0 0 -1.69 -7.33 -2.25 -12.4 -0.56 -5.07 5.64 -10.71 5.64 -10.71l 14.66 1.69 3.95 7.89c 0 0 0 7.89 -2.82 10.71 -2.82 2.82 -8.46 5.07 -8.46 5.07l 0.56 14.66c 0 0 68.21 24.8 71.03 25.37 2.82 0.56 12.4 2.82 12.4 2.82l 10.71 12.4 12.4 0c 0 0 1.13 -5.07 2.25 -9.58 1.13 -4.51 9.58 -25.37 9.58 -25.37 0 0 -5.64 -67.65 -7.33 -72.16 -1.69 -4.51 -2.82 -6.76 -9.02 -6.2 -6.2 0.56 -60.88 3.95 -60.88 3.95l -52.43 -12.97 -25.37 5.64 z" id="PATH3" style="fill:url(#GRADIENTCOLOR3)"/>
	<path d="m 63.37 72.4c 0 0 3.38 31.57 2.25 39.46 -1.13 7.89 -9.02 54.12 -9.02 66.52 0 12.4 7.89 36.08 9.02 42.84 1.13 6.76 2.25 9.02 -1.13 15.78 -3.38 6.76 -14.66 34.95 -16.91 48.48 -2.25 13.53 -1.13 36.08 -2.25 46.23 -1.13 10.15 -4.51 30.44 -3.38 37.21 1.13 6.76 7.89 29.31 7.89 29.31 0 0 73.29 -9.02 92.45 -9.02 19.17 0 135.3 12.4 155.59 16.91 20.29 4.51 62.01 5.64 62.01 5.64l 4.51 -18.04 -225.49 -103.73 -28.19 47.35 -18.04 -5.64c 0 0 -3.38 -9.02 1.13 -14.66 4.51 -5.64 18.04 -18.04 20.29 -23.68 2.25 -5.64 -4.51 -12.4 -2.25 -22.55 2.25 -10.15 19.17 -54.12 19.17 -54.12l 146.57 -54.12 2.25 -13.53 -180.39 22.55c 0 0 -6.76 -7.89 -6.76 -18.04 0 -10.15 5.64 -23.68 5.64 -45.1 0 -21.42 -2.25 -40.59 -2.25 -40.59l -32.7 4.51 z" id="PATH4" style="fill:url(#GRADIENTCOLOR4)"/>
	<path d="m 425.85 450.66c 2.25 5.07 9.58 10.71 14.09 20.29l 1.13 33.26 -41.72 10.15c 0 0 -172.5 -11.27 -184.9 -11.27 -12.4 0 -32.7 -2.25 -42.84 -3.38 -10.15 -1.13 -107.11 -14.09 -121.77 -12.4l -9.58 -11.84 0 -36.64 8.46 -10.15 -8.46 -9.58 1.13 -11.27 9.58 -5.07c 29.31 -5.07 49.04 -6.76 68.21 -6.76 19.17 0 68.78 4.51 96.96 6.76 28.19 2.25 116.69 14.66 135.86 15.78 19.17 1.13 43.97 -1.13 43.97 -1.13l 33.4 14.1c -0.7 6.75 -1.83 13.52 -3.52 19.16 z" id="PATH5" style="fill:#7d0117"/>
	<path d="m 42.01 420.05c 14.22 -5.28 37.9 -11.3 48.42 -13.55 10.9 -2.25 31.01 -4.32 41.72 -4.32 10.71 0 54.12 11.46 64.27 12.59 10.15 1.13 74.04 10.9 86.44 12.03 12.4 1.13 92.83 7.52 105.79 9.21 12.97 1.69 39.46 7.33 39.46 7.33l -1.69 6.76c 0 0 -19.17 -6.76 -37.58 -8.27 -18.79 -1.88 -92.08 -8.64 -105.23 -8.64 -15.78 -1.13 -66.14 -9.4 -86.44 -12.03 -20.29 -3.01 -45.1 -13.15 -64.27 -13.15 -19.17 0 -35.7 2.63 -42.47 4.13 -6.76 1.88 -34.58 8.27 -43.26 13.65l -5.16 -5.73 z" id="PATH6" style="fill:#b92b45"/>
	<path d="m 44.96 434.31c 12.4 -1.5 35.7 -4.13 46.6 -6.39 10.52 -2.25 34.2 -4.89 45.1 -4.89 10.52 0 50.36 7.14 60.51 8.27 10.15 1.13 101.85 21.42 114.25 22.93 11.27 1.13 57.88 3.76 72.53 4.13 12.78 -0.38 37.96 1.13 46.23 -1.5l 4.51 4.13c -14.66 4.51 -29.69 1.13 -48.48 2.25 -21.05 0.75 -60.51 -2.25 -74.79 -4.13 -15.78 -1.88 -90.57 -19.17 -110.87 -21.8 -20.29 -3.01 -53.37 -9.77 -65.77 -9.4 -19.17 0 -35.33 2.63 -42.09 3.76 -6.76 2.25 -35.7 6.76 -51.11 7.52l 3.38 -4.89 z" id="PATH7" style="fill:#b92b45"/>
	<path d="m 43.08 478.85c 14.28 -5.45 40.02 -7.89 51.3 -10.15 10.15 -2.25 30.44 -2.82 41.72 -2.82 10.15 0 51.3 2.82 60.88 3.95 20.86 2.82 90.76 16.35 102.6 18.6 16.91 3.38 51.3 7.33 65.96 7.33 12.97 0 39.46 4.51 52.43 13.53l -7.28 2.5c -18.35 -7.45 -29.81 -10.32 -45.3 -10.32 -21.21 0.57 -41.57 -3.46 -55.66 -5.15 -15.78 -2.25 -64.83 -12.4 -92.45 -18.6 -19.17 -3.95 -67.65 -6.2 -80.05 -6.2 -19.17 0 -32.13 1.69 -43.97 2.82 -6.76 0.56 -25.37 3.95 -46.23 8.46l -3.95 -3.95 z" id="PATH8" style="fill:#b92b45"/>
	<path d="m 97.76 491.25c 0 0 36.64 -7.33 59.76 -8.46 23.11 -1.13 55.25 1.69 65.96 3.95 10.71 2.25 53.61 11.86 62.22 20.46l -14.86 -0.73c 0 0 -34.39 -11.27 -47.92 -13.53 -13.53 -2.25 -56.37 -6.2 -65.96 -5.07 -9.58 1.13 -43.41 5.64 -43.41 5.64l -15.78 -2.25 z" id="PATH9" style="fill:#b92b45"/>
	<path d="m 40.29 457.32c 15.48 -2.87 35.55 -6.88 46.44 -9.17 10.32 -2.29 36.79 -3.67 47.69 -3.67 10.52 0 50.17 3.95 59.76 6.2 15.78 4.51 101.83 19.83 113.3 21.55 15.48 2.29 59.63 7.45 73.96 7.45 13.19 0 35.41 0.31 58.48 -2.29l 0 7.45c -22.36 3.44 -38.99 0 -58.48 1.15 -20.64 0.57 -58.48 -5.16 -73.96 -6.88 -16.05 -1.72 -91.74 -17.77 -113.53 -21.79 -20.64 -4.01 -47.02 -7.45 -59.63 -6.88 -18.92 0 -37.1 1.56 -43.87 2.68 -6.76 2.25 -35.7 6.76 -49.59 9.93l -0.57 -5.73 z" id="PATH10" style="fill:#b92b45"/>
	<path d="m 97.76 42.52l 168.56 -15.22c 0 0 2.25 46.23 2.25 51.86 0 5.64 13.53 65.39 13.53 65.39 0 0 -95.27 8.46 -108.8 9.58 -13.53 1.13 -73.29 11.84 -73.29 11.84 0 0 2.82 -46.79 2.82 -64.27 0 -17.48 -5.07 -59.19 -5.07 -59.19 z" id="PATH11" style="fill:#003d84"/>
	<path d="m 114.67 57.18l 135.3 -16.91c 0 0 3.38 38.9 3.95 49.04 0.56 10.15 5.64 43.97 5.64 43.97 0 0 -58.63 3.38 -69.9 4.51 -11.27 1.13 -73.85 13.53 -73.85 13.53 0 0 3.38 -35.52 4.51 -46.79 1.13 -11.27 -5.64 -47.35 -5.64 -47.35 z" id="PATH12" style="fill:#ccdd9a"/>
	<path d="m 237 55.48l -1.13 15.22 12.4 18.04 -0.56 32.13 -39.46 -1.69 -43.97 14.09 -28.75 0 65.39 -36.64 7.33 -20.29 15.78 -14.66 12.97 -6.2 z" id="PATH13" style="fill:#4ab3e6"/>
	<path d="m 190.21 56.61l -10.15 20.86 0 14.09 15.22 0 5.64 -12.97 0 -12.97 -10.71 -9.02 z" id="PATH14" style="fill:#04893f"/>
	<path d="m 133.84 62.81l 34.39 -5.64 7.89 13.53 -2.25 11.84 5.64 15.22 -38.9 23.68 8.46 -25.37c 0 0 -9.02 -16.91 -11.84 -20.29 -2.82 -3.38 -3.38 -12.97 -3.38 -12.97 z" id="PATH15" style="fill:#e26694"/>
	<path d="m 128.77 74.09c -0.56 2.82 10.15 20.29 10.15 20.29l -10.71 38.33 0.56 -58.63 z" id="PATH16" style="fill:#de5e00"/>
	<path d="m 364.41 394.85l -14.09 62.57 -13.53 6.76 -15.22 -15.78 25.93 -62.01 16.91 8.46 z" id="PATH17" style="fill:#000000"/>
	<path d="m 363.3 397.69l -15.78 60.32 -9.58 3.38 -10.15 -12.4 24.24 -58.63 11.27 7.33 z" id="PATH18" style="fill:#6c4500"/>
	<g>
		<use style="filter:url(#SHADOW19);fill:black" transform="scale(0.95),translate(13.47 15.89)" xlink:href="#PATH19"/>
		<use xlink:href="#PATH19"/>
	</g>
	<path d="m 391.47 222.55l -47.35 -36.08 -59.19 -21.99 -146.01 55.25c 0 0 71.03 21.99 85.12 28.75 14.09 6.76 87.94 48.48 101.47 57.5 13.53 9.02 29.88 17.48 38.33 24.8 11.84 10.15 17.48 16.91 26.5 24.24 0 0 5.07 -73.29 5.07 -84.56 0 -11.27 -1.69 -38.33 -3.95 -47.92 z" id="PATH20" style="fill:#ec9a98"/>
	<path d="m 390.9 354.26c 0 0 -14.66 -16.91 -24.8 -27.06 -10.15 -10.15 -120.64 -68.21 -133.6 -76.1 -12.97 -7.89 -71.03 -29.31 -90.76 -32.13 -7.33 11.84 -14.66 25.93 -16.91 32.7 -2.25 6.76 -5.07 13.53 -5.64 24.8 15.22 16.35 41.15 32.13 54.68 39.46 13.53 7.33 71.03 36.64 81.18 42.84 10.15 6.2 76.1 40.59 90.2 45.66 14.09 5.07 21.99 -0.56 27.62 -8.46 5.64 -7.89 6.76 -9.58 10.71 -16.91 3.38 -7.89 7.33 -13.53 7.33 -24.8 z" id="PATH21" style="fill:url(#GRADIENTCOLOR21);filter:url(#SHADOW21)"/>
	<path d="m 284.36 165.98l 22.17 -61.63c -3.76 -0.38 -5.64 -6.01 -4.51 -9.02 0.75 -5.64 3.19 -8.83 9.4 -7.7 7.89 1.69 7.89 8.08 7.14 11.84 -1.88 4.89 -7.14 5.64 -7.14 5.64l -4.51 21.42 85.12 32.13 23.11 21.99 15.22 -14.66c 0 0 -3.95 -6.2 -2.25 -10.15 1.69 -3.95 5.07 -8.64 10.71 -6.76 5.64 1.5 8.27 6.76 7.14 10.15 -1.13 3.38 -0.83 4.96 -3.08 6.76 -2.48 1.8 -5.64 2.71 -9.02 1.58l -42.39 59.3 -11.27 -11.84 33.07 -32.88 -108.05 -49.98c 0 0 -3.38 18.04 -4.51 21.42 -1.13 3.38 -0.56 4.96 2.14 2.71 1.13 -1.58 1.8 -3.16 4.28 -5.19 8.79 4.96 87.15 45.32 87.15 45.32l -94.71 -34.95 -1.13 9.02 -14.09 -4.51 z" id="PATH22" style="fill:#e99000"/>
	<path d="m 322.13 165.41c 0 0 5.64 6.76 7.89 10.15 2.25 3.38 8.46 5.07 12.97 6.2 5.07 1.69 12.4 5.07 18.6 9.02 6.2 3.95 16.35 12.97 16.35 12.97 0 0 2.25 3.38 0.56 6.2 -1.69 2.82 -9.02 23.68 -11.84 30.44 -1.69 4.51 -5.64 15.78 -11.84 9.58 -6.2 -6.2 -32.41 -23.68 -41.15 -27.34 -15.22 -6.76 -35.23 -11.84 -41.72 -13.25 -3.95 -0.85 -5.07 -3.1 -5.07 -7.61 0 -4.51 -0.85 -4.79 2.82 -6.2 3.38 -1.41 29.31 -14.94 32.13 -18.89 1.23 -1.72 2.82 -6.76 5.07 -11.27 6.76 -1.13 12.36 0.32 15.22 0 z" id="PATH23" style="fill:#55b0ad;filter:url(#SHADOW23)"/>
	<path d="m 353.13 229.11c 12.4 -0.56 21.42 0 30.44 2.25 9.02 2.25 17.48 6.2 19.73 10.71 2.25 4.51 -1.8 16.28 -10.4 20.3 -6.88 2.87 -27.37 8.45 -39.78 8.45 -12.4 0 -31.57 -3.95 -41.72 -8.46 -10.15 -4.51 -8.46 -12.4 -6.76 -15.78 1.69 -3.38 10.28 -10.59 18.31 -12.88 8.03 -3.44 17.77 -4.03 30.17 -4.59 z" id="PATH24" style="fill:#da6000"/>
	<path d="m 347.49 235.31c 0 0 -14.09 4.51 -17.48 6.2 -3.38 1.69 -9.58 8.46 -9.58 8.46l 4.51 6.76c 0 0 2.25 -5.64 6.76 -9.02 4.51 -3.38 15.78 -12.4 15.78 -12.4 z" id="PATH25" style="fill:#ea8100"/>
	<path d="m 387.56 238.68c 4.2 0 6.5 2.68 8.41 5.35 3.06 4.59 0 5.73 -2.29 9.17 -2.68 2.68 -6.5 6.5 -15.29 8.41 -6.88 1.15 -20.18 1.89 -20.18 1.89 0 0 15.21 -3.8 19.79 -6.86 4.59 -3.82 14.14 -12.23 9.56 -17.97 z" id="PATH26" style="fill:#c43300"/>
	<path d="m 283.79 278.92c 9.02 0.56 20.29 7.33 26.5 10.71 6.2 3.38 6.76 7.33 6.76 7.33l 1.13 15.22c 0 0 18.04 18.04 22.55 22.55 4.51 4.51 7.89 16.35 7.89 16.35 0 0 -5.07 -9.02 -20.29 -10.71 -15.22 -1.69 -36.08 -3.38 -46.23 -0.56 -10.15 2.82 -23.68 7.33 -26.5 11.84 -2.82 4.51 -4.51 7.89 -4.51 12.4 0 4.51 0 8.46 0 8.46 0 0 -3.38 -3.95 -6.2 -7.33 -2.82 -3.38 -3.95 -5.64 -3.95 -5.64 0 0 -4.7 4.32 -7.7 6.2 -4.51 2.63 -16.91 2.25 -21.05 1.13 -6.39 -1.88 -14.66 -6.39 -17.29 -17.29 -3.01 -10.52 -0.19 -19.35 2.63 -26.12 2.82 -6.76 6.76 -10.71 14.09 -10.71 7.33 0 10.71 1.88 13.72 4.89 2.63 2.63 1.13 9.02 1.13 12.4 0 3.38 -1.32 6.39 -5.26 5.83 -3.95 -0.56 -6.01 -2.82 -5.26 -6.2 0.38 -4.89 -1.13 -6.76 -4.51 -6.39 -2.63 -0.38 -5.64 4.89 -6.39 9.02 -0.38 3.76 -1.13 12.03 0.75 16.54 1.5 4.51 5.26 10.71 15.97 9.02 10.71 -1.69 12.97 -3.38 12.97 -7.89 0 -4.51 -1.13 -12.97 0 -20.29 1.13 -7.33 6.76 -23.68 12.4 -30.44 5.64 -6.76 8.46 -12.4 14.09 -15.22 5.64 -2.82 13.53 -5.64 22.55 -5.07 z" id="PATH27" style="fill:#da6000"/>
	<path d="m 272.52 287.94c 0 0 -8.46 12.4 -10.71 20.29 -2.25 7.89 -5.64 14.66 -4.51 19.73 1.13 5.07 3.38 14.66 3.38 14.66l -17.48 4.51 -1.69 -13.53 9.58 -27.06c 0 0 10.71 -11.84 13.53 -14.66 2.82 -2.82 7.89 -3.95 7.89 -3.95 z" id="PATH28" style="fill:#ea8701"/>
	<path d="m 305.78 305.42c 0 0 8.46 4.51 11.84 8.46 3.38 3.95 11.84 18.6 11.84 18.6l -13.53 1.13c 0 0 -1.13 -12.4 -3.95 -17.48 -2.82 -5.07 -6.2 -10.71 -6.2 -10.71 z" id="PATH29" style="fill:#c33503"/>
	<path d="m 256.73 326.84c 5.36 3.38 6.48 3.95 8.74 0 2.54 -4.51 3.95 -5.36 5.36 -8.46 1.69 -3.38 8.17 -2.25 12.12 0.56 3.95 2.82 5.07 6.2 8.74 5.92 2.54 -0.28 7.61 -5.64 9.87 -8.46 2.25 -2.82 5.92 -3.1 8.74 -1.41 2.82 1.69 9.02 7.33 12.4 10.71 3.38 3.38 -1.13 9.02 -5.07 5.64 -3.95 -3.38 -7.89 -9.3 -10.43 -9.02 -3.1 0.28 -6.2 5.36 -9.02 8.17 -2.82 2.82 -7.61 5.36 -10.99 1.97 -3.38 -3.38 -7.33 -8.46 -10.15 -7.61 -1.41 0.28 -4.23 5.36 -6.48 9.3 -2.25 3.95 -8.17 3.95 -11.27 2.54 -3.95 -1.69 -5.92 -4.51 -7.61 -2.25 -1.41 1.97 -1.69 7.05 -1.69 10.43 0 3.38 -7.33 7.33 -6.76 -1.13 0.56 -8.46 1.41 -14.66 3.38 -17.76 1.69 -2.54 5.07 -1.97 10.15 0.85 z" id="PATH30" style="fill:#fbf203"/>
	<path d="m 261.24 345.44c 6.2 -5.07 14.09 -9.02 23.68 -9.02 9.58 0 38.9 0 47.35 2.82 8.46 2.82 15.78 7.89 16.91 12.97 1.13 5.07 0.56 14.66 -2.82 20.29 -3.38 5.64 -25.37 12.97 -36.08 13.53 -10.71 0.56 -28.75 0 -37.77 -2.25 -9.02 -2.25 -11.84 -3.76 -15.22 -6.39 -3.38 -3.38 -10.15 -4.51 -9.77 -12.03 -0.38 -9.4 7.52 -14.84 13.72 -19.92 z" id="PATH31" style="fill:#71604e"/>
	<path d="m 279.85 354.3l 22.42 23.86 -3.71 -12.52 29.69 17.63c 0.93 -4.64 0.46 -11.13 -3.71 -19.02 -3.25 -6.49 -11.43 -16.14 -11.43 -16.14 0 0 16.35 2.25 24.24 6.2 7.89 3.95 21.98 14.58 25.69 19.22 4.17 4.17 5.72 8.2 3.56 15.31l -4.44 3.24c 0 0 6.76 10.15 7.89 15.22 1.13 5.07 1.13 16.35 -1.13 20.29 -2.25 3.95 -5.64 6.2 -11.84 6.76 -6.2 0.56 -10.15 1.13 -15.22 -3.95 -5.07 -5.07 -8.46 -27.62 -8.46 -27.62 0 0 -3.95 6.2 -8.46 5.07 -4.51 -1.13 -10.15 -1.69 -12.97 -7.33 -2.82 -5.64 -7.33 -12.97 -7.33 -12.97 0 0 0.56 16.91 0.56 20.29 0 3.38 -5.07 10.15 -9.02 10.71 -3.95 0.56 -11.84 1.13 -16.35 -1.69 -4.51 -2.82 -6.76 -14.66 -5.64 -18.6 1.13 -3.95 4.51 -4.51 5.64 -9.58 1.13 -5.07 0 -34.39 0 -34.39 z" id="PATH32" style="fill:#009fdb"/>
	<path d="m 241.51 442.77c 0 0 -16.91 -28.75 -19.17 -33.26 -2.25 -4.51 -9.02 -4.51 -13.53 -3.95 -4.51 0.56 -7.33 3.95 -7.33 7.33 0 3.38 9.58 41.72 9.58 41.72 0 0 11.27 -7.33 16.91 -9.02 5.64 -1.69 13.53 -2.82 13.53 -2.82 z" id="PATH33" style="fill:#df6645"/>
	<path d="m 205.99 407.15c 0 0.86 -0.86 7.45 1.43 14.91 2.87 10.89 7.74 22.07 7.74 22.07l -4.87 5.73c -2.58 -8.6 -4.59 -18.92 -6.31 -25.51 -1.15 -4.3 -2.58 -8.6 -2.01 -12.04 0.57 -3.44 1.72 -4.3 4.01 -5.16 z" id="PATH34" style="fill:#d14c2f"/>
	<path d="m 249.41 437.69c 0 0 9.02 3.95 12.97 12.4 3.95 8.46 4.51 15.78 2.82 20.29 -1.69 4.51 -12.4 7.89 -18.6 9.58 -6.2 1.69 -18.6 1.13 -23.68 -1.69 -5.07 -2.82 -12.97 -9.02 -15.78 -14.09 -2.82 -5.07 -1.13 -9.58 1.13 -13.53 2.82 -5.07 8.46 -10.15 17.48 -11.84 9.02 -1.69 23.68 -1.13 23.68 -1.13 z" id="PATH35" style="fill:#92c8c4"/>
	<path d="m 211.64 450.38c 0.85 7.61 -0.56 7.61 3.95 12.68 4.51 5.07 10.71 8.46 16.35 9.58 5.64 1.13 16.35 0.56 16.35 0.56 0 0 -12.12 3.66 -16.63 3.66 -4.51 0 -16.07 -5.92 -19.45 -10.43 -3.38 -4.51 -3.1 -4.23 -3.66 -7.33 -0.56 -2.54 1.41 -5.36 3.1 -8.74 z" id="PATH36" style="fill:#78b6b2"/>
	<path d="m 116.36 412.89c 0 0 21.42 -16.91 25.93 -21.42 4.51 -4.51 9.02 -11.27 13.53 -13.53 4.51 -2.25 12.97 -2.82 16.91 -0.56 3.95 2.25 1.69 12.4 0 18.04 -1.69 5.64 -19.17 32.13 -19.17 32.13 0 0 -19.17 2.82 -24.8 0.56 -5.64 -2.25 -12.4 -15.22 -12.4 -15.22 z" id="PATH37" style="fill:#df6743"/>
	<path d="m 144.55 425.86l 11.27 0c 0 0 10.37 -18.83 12.85 -24.69 1.8 -5.64 3.83 -14.21 3.38 -17.36 -0.68 -3.38 -2.71 -5.3 -2.71 -5.3 0 0 -0.68 6.65 -0.68 10.26 -0.68 5.19 -4.06 9.47 -6.31 13.53 -2.25 3.83 -9.7 15.33 -17.81 23.56 z" id="PATH38" style="fill:#d95032"/>
	<path d="m 157.52 426.98c 0 0 -16.91 15.78 -23.11 19.17 -6.2 3.38 -23.11 7.89 -32.13 8.46 -9.02 0.56 -16.91 -4.51 -19.73 -7.89 -2.82 -3.38 -3.38 -11.84 -0.56 -15.78 2.82 -3.95 10.15 -12.4 15.78 -16.35 5.64 -3.95 11.84 -6.2 15.78 -7.89 3.95 -1.69 6.2 0.56 5.64 3.38 -0.56 2.82 -1.13 5.07 2.25 7.89 3.38 2.82 7.33 5.64 12.4 6.76 5.07 1.13 23.68 2.25 23.68 2.25 z" id="PATH39" style="fill:#92c8c4"/>
	<path d="m 150.75 429.24c 0 0 -15.78 14.09 -21.42 16.91 -5.64 2.82 -21.99 5.64 -29.31 5.07 -7.33 -0.56 -15.78 -7.33 -15.78 -7.33 0 0 14.09 2.82 20.86 2.25 6.76 -0.56 18.6 -2.82 21.99 -5.64 3.38 -2.82 23.68 -11.27 23.68 -11.27 z" id="PATH40" style="fill:#71b5b4"/>
	<path d="m 111.29 151.88c 0 0 5.07 31.57 6.2 35.52 1.13 3.95 1.69 2.82 5.07 1.69 3.38 -1.13 9.02 -2.82 14.09 -2.25 5.07 0.56 16.91 2.25 21.42 3.95 4.51 1.69 7.33 3.95 7.33 3.95l 26.5 -32.7c 0 0 -7.33 25.93 -8.46 29.88 -1.13 3.95 1.13 7.33 4.51 7.33 3.38 0 19.17 -6.76 27.06 -8.46 7.89 -1.69 15.78 0.56 20.86 -1.13 5.07 -1.69 11.27 -1.69 13.53 -9.02 2.25 -7.33 2.82 -14.66 6.76 -18.6 3.95 -3.95 18.6 -6.76 25.93 -9.02 7.33 -2.25 11.84 -5.07 14.66 -9.02 2.82 -3.95 5.64 -1.13 5.64 -1.13l -1.13 6.76c 0 0 -10.71 9.58 -16.91 10.15 -6.2 0.56 -19.17 1.32 -23.3 6.95 -3.76 4.51 -3.76 10.15 -6.01 15.78 -1.88 3.76 -5.64 7.7 -9.58 8.83 -3.95 1.13 -8.08 2.07 -6.2 5.07 2.25 3.76 3.95 5.64 8.46 6.76 4.51 1.13 10.71 2.82 14.09 4.51 3.38 1.69 10.15 9.02 10.15 9.02 0 0 -1.13 7.89 -5.07 5.07 -3.95 -2.82 -9.02 -7.33 -13.53 -9.02 -4.51 -1.69 -8.46 -1.13 -12.4 1.13 -3.95 2.25 -10.15 2.82 -12.97 2.82 -2.82 0 -6.2 1.13 -9.02 4.51 -2.82 3.38 -11.84 8.46 -18.04 11.27 -6.2 2.82 -36.08 20.29 -45.66 27.06 -9.58 6.76 -28.19 25.93 -33.26 31.57 -5.07 5.64 -12.4 6.76 -16.35 6.76 -3.95 0 -0.56 -3.95 3.95 -8.46 4.51 -4.51 31.57 -33.82 31.57 -33.82 0 0 -15.22 -0.56 -18.6 -1.13 -3.38 -0.56 -10.15 -1.69 -12.97 0.56 -2.82 2.25 -29.31 14.66 -33.26 17.48 -3.95 2.82 -9.58 4.51 -11.84 1.69 -2.25 -2.82 11.84 -14.09 18.04 -18.04 6.2 -3.95 20.86 -10.15 20.86 -10.15 0 0 -9.21 -5.64 -11.84 -11.27 -3.01 -5.26 -4.13 -18.42 -1.5 -25.56 1.5 -6.39 11.27 -12.03 12.78 -18.42 1.13 -4.51 8.46 -38.9 8.46 -38.9 z" id="PATH41" style="fill:#000000"/>
	<path d="m 150.19 202.81l 11.27 18.79 -18.04 8.64 -15.41 -16.16 22.17 -11.27 z" id="PATH42" style="fill:#f7ec00"/>
	<path d="m 108.47 200.93l 10.15 16.54 -18.42 4.89 -6.01 -12.4 14.28 -9.02 z" id="PATH43" style="fill:#f7ec00"/>
	<path d="m 139.85 223.85c -2.8 0 -5.07 -2.27 -5.07 -5.07 0 -2.8 2.27 -5.07 5.07 -5.07 2.8 0 5.07 2.27 5.07 5.07 0 2.8 -2.27 5.07 -5.07 5.07 z" id="PATH44" style="fill:#000000"/>
	<path d="m 100.58 220.47c -2.91 0 -5.26 -2.36 -5.26 -5.26 0 -2.91 2.36 -5.26 5.26 -5.26 2.91 0 5.26 2.36 5.26 5.26 0 2.91 -2.36 5.26 -5.26 5.26 z" id="PATH45" style="fill:#000000"/>
	<path d="m 121.63 230.99c -3.11 0 -5.64 -1.93 -5.64 -4.32 0 -2.39 2.52 -4.32 5.64 -4.32 3.11 0 5.64 1.93 5.64 4.32 0 2.39 -2.52 4.32 -5.64 4.32 z" id="PATH46" style="fill:#f7ec00"/>
	<path d="m 182.6 202.62c -2.22 0.89 -1.15 2.19 -1.15 5.17 0 3.9 -0.69 11.7 -1.38 14.68 -0.46 3.21 -3.67 9.74 -5.93 12.56 -2.25 2.82 -9.3 9.02 -12.4 10.71 -3.1 1.69 -9.58 6.2 -9.58 6.2 0 0 7.89 -2.25 11.27 -4.51 3.38 -2.25 10.99 -8.46 12.68 -10.99 1.69 -2.54 5.64 -10.71 6.2 -13.25 0.56 -2.54 1.41 -12.97 1.12 -15.48 0.29 -3.12 0.57 -5.66 -0.84 -5.1 z" id="PATH47" style="fill:#c8c4b7"/>
	<path d="m 180.97 198.18c 2.5 -1.16 4.16 2.33 1.66 3.49 -2.5 1.16 -4.16 -2.33 -1.66 -3.49 z" id="PATH48" style="fill:#c8c4b7"/>
	<path d="m 295.78 377.07c 0 0 2.47 15.46 -1.24 21.96 -3.71 6.49 -3.4 12.68 1.55 13.92 5.57 1.86 8.04 -4.02 8.97 -10.51 0.93 -6.49 0 -9.59 -0.31 -12.68 -1.86 -5.57 -5.26 -9.59 -8.97 -12.68 z" id="PATH49" style="fill:#3ab9f8"/>
	<path d="m 331.35 397.46c 0.3 4.63 -2.73 6.48 -6.38 4.01 -3.64 -2.47 -1.83 -8 -3.68 -11.71 -2.32 -4.64 -4.17 -6.49 -6.49 -11.6 6.96 3.25 10.21 6.03 12.06 9.28 2.78 4.17 4.19 6.63 4.49 10.02 z" id="PATH50" style="fill:#3ab9f8"/>
	<path d="m 350.05 384.65c 8.81 5.57 12.52 12.52 15.31 21.8 2.78 9.28 1.86 17.16 -1.86 21.34 -4.17 5.1 -14.84 0 -9.28 -5.57 3.71 -3.71 5.57 -7.42 4.17 -15.77 -0.93 -6.49 -0.93 -11.6 -8.35 -21.8 z" id="PATH51" style="fill:#3ab9f8"/>
	<path d="m 363.5 380.94c 1.39 0 1.86 6.96 -2.78 6.03 -4.64 -0.93 -3.71 -11.13 -12.99 -19.02 6.96 1.86 12.99 6.03 15.77 12.99 z" id="PATH52" style="fill:#3ab9f8"/>
	<path d="m 750.5 564.63l -252 0 0 -580.25 252 0 0 580.25 z" id="PATH53" style="fill:#000000"/>
	<text x="515" y="51.34" id="TEXT54" style="font-family:'Arial';font-size:12px;font-weight:bold;kerning:0;fill:#ffffff" xml:space="preserve">Use PhotoImpact to create</text>
	<text x="515" y="65.53" id="TEXT55" style="font-family:'Arial';font-size:12px;font-weight:bold;kerning:0;fill:#ffffff" xml:space="preserve">high-quality, dazzling SVG images</text>
	<text x="515" y="81.19" id="TEXT56" style="font-family:'Arial';font-size:12px;font-weight:bold;kerning:0;fill:#ffffff" xml:space="preserve">with minimum file size!</text>
	<text x="515" y="110.53" id="TEXT57" style="font-family:'Arial';font-size:12px;font-weight:bold;kerning:0;fill:#ffffff" xml:space="preserve">This sample is created using the</text>
	<text x="515" y="125.97" id="TEXT58" style="font-family:'Arial';font-size:12px;font-weight:bold;kerning:0;fill:#ffffff" xml:space="preserve">Gradient Fill, Text, Path and Shadow</text>
	<text x="515" y="141.19" id="TEXT59" style="font-family:'Arial';font-size:12px;font-weight:bold;kerning:0;fill:#ffffff" xml:space="preserve">features. All these elements are</text>
	<text x="515" y="156.34" id="TEXT60" style="font-family:'Arial';font-size:12px;font-weight:bold;kerning:0;fill:#ffffff" xml:space="preserve">preserved in a SVG file.</text>
	<text x="515" y="186.34" id="TEXT61" style="font-family:'Arial';font-size:12px;font-weight:bold;kerning:0;fill:#ffffff" xml:space="preserve">Export this UFO file to SVG now</text>
	<text x="515" y="200.53" id="TEXT62" style="font-family:'Arial';font-size:12px;font-weight:bold;kerning:0;fill:#ffffff" xml:space="preserve">and see how vivid the image displays</text>
	<text x="515" y="215.53" id="TEXT63" style="font-family:'Arial';font-size:12px;font-weight:bold;kerning:0;fill:#ffffff" xml:space="preserve">in your browser!</text>
	<text x="515" y="245.97" id="TEXT64" style="font-family:'Arial';font-size:12px;font-weight:bold;kerning:0;fill:#ffffff" xml:space="preserve">All text attributes are still retained,</text>
	<text x="515" y="261.19" id="TEXT65" style="font-family:'Arial';font-size:12px;font-weight:bold;kerning:0;fill:#ffffff" xml:space="preserve">so modification has never been easier!</text>
	<path d="m 558.44 518.24c -1 0 -1.57 -0.66 -1.57 -1.81 0 -1.16 0.58 -1.88 1.51 -1.88 0.34 0 0.69 0.07 1.03 0.19 0.01 -0.09 0.1 -1.16 0.11 -1.22 -0.36 -0.1 -0.78 -0.14 -1.07 -0.14 -2.18 0 -2.96 1.65 -2.96 3.2 0 1.86 0.98 2.92 2.68 2.92 0.47 0 0.92 -0.08 1.38 -0.24 -0.01 -0.06 -0.1 -1.14 -0.11 -1.23 -0.28 0.14 -0.63 0.23 -1.01 0.23m 8.77 1.16c -0.19 -0.3 -1.17 -1.88 -1.17 -1.88l -0.1 -0.16 -0.34 -0.55 0.05 -0.01c 0.82 -0.22 1.29 -0.83 1.29 -1.68 0 -1.11 -0.73 -1.7 -2.1 -1.7 0 0 -1.85 0.03 -1.92 0.03 0 0.08 0 5.86 0 5.94 0.07 0 1.2 0 1.27 0 0 -0.08 0 -2.35 0 -2.35l 0.04 0 0.09 0.02c 0 0 1.31 2.29 1.31 2.33l 0 0c 0 0 1.44 0 1.57 0m -2.52 -3.25l -0.49 -0.03 0 -1.58 0 -0.04 0.04 0 0.41 -0.02c 0.58 0 0.94 0.3 0.94 0.79 0 0.52 -0.36 0.87 -0.9 0.87m 8.74 -1.6c 0 -0.07 0 -1.01 0 -1.09 -0.08 0 -3.19 0 -3.27 0 0 0.08 0 5.86 0 5.94 0.08 0 3.19 0 3.27 0 0 -0.08 0 -1.04 0 -1.11 -0.08 0 -2 0 -2 0l 0 -1.4c 0 0 1.83 0 1.91 0 0 -0.07 0 -0.98 0 -1.05 -0.08 0 -1.91 0 -1.91 0l 0 -1.29c 0 0 1.92 0 2 0m 6.73 3.8c 0 0 0.32 1 0.34 1.05 0.06 0 1.3 0 1.4 0 -0.04 -0.11 -1.97 -5.89 -1.98 -5.94 -0.06 0 -1.49 0 -1.55 0 -0.02 0.05 -1.96 5.83 -2 5.94 0.1 0 1.22 0 1.28 0 0.02 -0.05 0.35 -1.05 0.35 -1.05l 2.17 0m -1.38 -2.51l 0.24 -0.85 0.05 -0.14 0.3 1.03 0.49 1.48 -1.58 0 0.5 -1.52m 9.07 -2.38c -0.08 0 -4.04 0 -4.12 0 0 0.07 0 1.12 0 1.19 0.08 0 1.42 0 1.42 0 0 0 0 4.67 0 4.75 0.08 0 1.2 0 1.27 0 0 -0.08 0 -4.75 0 -4.75 0 0 1.35 0 1.43 0 0 -0.07 0 -1.12 0 -1.19m 4.34 5.94c 0 -0.08 0 -5.86 0 -5.94 -0.07 0 -1.2 0 -1.27 0 0 0.08 0 5.86 0 5.94 0.07 0 1.2 0 1.27 0m 7.22 -5.95c -0.05 0.15 -0.93 2.77 -0.93 2.77l -0.44 1.61 -0.05 0.16 -0.04 -0.16c -0.15 -0.65 -0.29 -1.18 -0.44 -1.6 0 0 -0.91 -2.71 -0.92 -2.76 -0.05 0 -1.29 0 -1.39 0 0.04 0.11 1.99 5.89 2.01 5.94 0.05 0 1.48 0 1.53 0 0.02 -0.05 1.95 -5.85 1.98 -5.95 -0.1 0 -1.25 0 -1.31 0m 7.53 1.1c 0 -0.07 0 -1.01 0 -1.09 -0.08 0 -3.19 0 -3.27 0 0 0.08 0 5.86 0 5.94 0.08 0 3.19 0 3.27 0 0 -0.08 0 -1.04 0 -1.11 -0.08 0 -2 0 -2 0l 0 -1.4c 0 0 1.83 0 1.91 0 0 -0.07 0 -0.98 0 -1.05 -0.08 0 -1.91 0 -1.91 0l 0 -1.29c 0 0 1.92 0 2 0m 9.55 4.85c 0 -0.08 0 -5.86 0 -5.94 -0.08 0 -1.2 0 -1.27 0 0 0.08 0 5.86 0 5.94 0.07 0 1.19 0 1.27 0m 5.43 -2.92c 0 0 1.6 2.88 1.63 2.92 0.04 0 1.67 0 1.75 0 0 -0.08 0 -5.86 0 -5.94 -0.07 0 -1.15 0 -1.23 0 0 0.22 0.01 2.49 0.01 2.49l 0.03 1.48 -0.09 0.02c -0.16 -0.4 -0.35 -0.78 -0.56 -1.14 0 0 -1.55 -2.81 -1.55 -2.85l 0 0c 0 0 -1.69 0 -1.77 0 0 0.08 0 5.86 0 5.94 0.08 0 1.14 0 1.22 0 0 -0.08 0 -2.94 0 -2.94l -0.03 -1.06 0.09 -0.02 0.51 1.1m 10.48 -3.02c -0.08 0 -4.04 0 -4.12 0 0 0.07 0 1.12 0 1.19 0.08 0 1.43 0 1.43 0 0 0 0 4.67 0 4.75 0.07 0 1.2 0 1.27 0 0 -0.08 0 -4.75 0 -4.75 0 0 1.35 0 1.43 0 0 -0.07 0 -1.12 0 -1.19m 6 1.09c 0 -0.07 0 -1.01 0 -1.09 -0.08 0 -3.19 0 -3.27 0 0 0.08 0 5.86 0 5.94 0.08 0 3.19 0 3.27 0 0 -0.08 0 -1.04 0 -1.11 -0.08 0 -2 0 -2 0l 0 -1.4c 0 0 1.83 0 1.91 0 0 -0.07 0 -0.98 0 -1.05 -0.08 0 -1.91 0 -1.91 0l 0 -1.29c 0 0 1.92 0 2 0m 3.37 -1.09c 0 0.08 0 5.86 0 5.94 0.08 0 2.96 0 3.04 0 0 -0.08 0 -1.16 0 -1.24 -0.08 0 -1.77 0 -1.77 0 0 0 0 -4.62 0 -4.7 -0.07 0 -1.2 0 -1.27 0m 6.05 0c 0 0.08 0 5.86 0 5.94 0.08 0 2.96 0 3.04 0 0 -0.08 0 -1.16 0 -1.24 -0.08 0 -1.77 0 -1.77 0 0 0 0 -4.62 0 -4.7 -0.07 0 -1.19 0 -1.27 0m 7.4 5.94c 0 -0.08 0 -5.86 0 -5.94 -0.07 0 -1.19 0 -1.27 0 0 0.08 0 5.86 0 5.94 0.08 0 1.2 0 1.27 0m 3.51 -2.86c 0 1.83 1.06 2.96 2.78 2.96 0.73 0 1.41 -0.14 2.08 -0.4 0 0 0 -2.75 0 -2.83 -0.08 0 -1.2 0 -1.27 0 0 0.08 0 1.88 0 1.88l -0.03 0.01c -0.19 0.07 -0.43 0.11 -0.66 0.11 -0.95 0 -1.54 -0.7 -1.54 -1.84 0 -1.16 0.67 -1.9 1.7 -1.9 0.5 0 0.97 0.11 1.46 0.32 0.02 -0.08 0.22 -1.13 0.23 -1.2 -0.55 -0.19 -1.13 -0.29 -1.72 -0.29 -1.81 0 -3.02 1.28 -3.02 3.19m 11.74 -2c 0 -0.07 0 -1.01 0 -1.09 -0.08 0 -3.19 0 -3.27 0 0 0.08 0 5.86 0 5.94 0.08 0 3.19 0 3.27 0 0 -0.08 0 -1.04 0 -1.11 -0.08 0 -2 0 -2 0l 0 -1.4c 0 0 1.83 0 1.91 0 0 -0.07 0 -0.98 0 -1.05 -0.08 0 -1.91 0 -1.91 0l 0 -1.29c 0 0 1.92 0 2 0m 5.29 1.93c 0 0 1.6 2.88 1.62 2.92 0.05 0 1.67 0 1.75 0 0 -0.08 0 -5.86 0 -5.94 -0.07 0 -1.15 0 -1.23 0 0 0.22 0.01 2.49 0.01 2.49l 0.03 1.48 -0.09 0.02c -0.17 -0.4 -0.36 -0.79 -0.56 -1.14 0 0 -1.55 -2.81 -1.55 -2.85l 0 0c 0 0 -1.69 0 -1.77 0 0 0.08 0 5.86 0 5.94 0.07 0 1.14 0 1.22 0 0 -0.08 0 -2.94 0 -2.94l -0.03 -1.06 0.09 -0.02 0.51 1.1m 9.6 1.76c -1 0 -1.57 -0.66 -1.57 -1.81 0 -1.16 0.58 -1.88 1.51 -1.88 0.34 0 0.69 0.07 1.04 0.19 0.01 -0.09 0.1 -1.16 0.11 -1.22 -0.36 -0.1 -0.79 -0.14 -1.07 -0.14 -2.18 0 -2.96 1.65 -2.96 3.2 0 1.86 0.98 2.92 2.68 2.92 0.47 0 0.92 -0.08 1.39 -0.24 -0.01 -0.06 -0.1 -1.14 -0.11 -1.23 -0.28 0.14 -0.64 0.23 -1.01 0.23m 7.7 -3.7c 0 -0.07 0 -1.01 0 -1.09 -0.08 0 -3.19 0 -3.27 0 0 0.08 0 5.86 0 5.94 0.08 0 3.19 0 3.27 0 0 -0.08 0 -1.04 0 -1.11 -0.08 0 -2 0 -2 0l 0 -1.4c 0 0 1.83 0 1.91 0 0 -0.07 0 -0.98 0 -1.05 -0.08 0 -1.91 0 -1.91 0l 0 -1.29c 0 0 1.92 0 2 0m -29.49 -41.26c -2.22 -2.66 -6.31 -2.79 -7.11 -2.79l -6.07 0 -8.09 0 -0.54 3.06 1.93 0c 0.16 0 0.32 0.07 0.43 0.2 0.14 0.17 0.18 0.41 0.13 0.71l -2.49 14.14 12.54 0c 3.04 0 9.24 -2.86 10.46 -9.74 0.4 -2.28 0 -4.15 -1.19 -5.58m -15.41 10.24l 1.37 -7.63c 0.16 -0.89 0.78 -1.78 1.8 -1.78l 4.06 0c 0.38 0 1.56 0.21 2.36 1.17 0.76 0.91 1 2.25 0.69 3.97 -0.84 4.72 -3.73 5.75 -4.77 5.75l -4.45 0.01c -0.36 0 -0.65 -0.12 -0.84 -0.36 -0.23 -0.27 -0.3 -0.67 -0.22 -1.13m -76.37 -13l -2.05 11.5c -0.14 0.78 -0.56 3.14 -4.61 3.07 -1.86 -0.03 -2.99 -0.33 -3.46 -0.9 -0.37 -0.45 -0.34 -1.07 -0.18 -1.98l 2.08 -11.69 -0.38 0 -5.52 0 -0.63 3.97 -1.47 8.29c -0.33 1.82 0.3 3.03 0.88 3.74 1.37 1.63 4.04 2.47 7.96 2.47 8.96 0 11.03 -4.15 11.47 -6.62l 2.11 -11.84 -6.21 0m 14.65 0l -0.38 0 -5.46 0 -3.2 18.08 16.76 0 0.85 -4.44c 0 0 -10.29 0 -11 0 0.13 -0.7 2.43 -13.64 2.43 -13.64m 17.04 14.17c -0.15 -0.17 -0.19 -0.46 -0.13 -0.8l 0.29 -1.65c 0.08 -0.46 0.47 -0.86 0.84 -0.86l 9.47 0 0.65 -3.63 -9.48 0c -0.15 0 -0.26 -0.09 -0.32 -0.17 -0.14 -0.17 -0.2 -0.41 -0.16 -0.63l 0.35 -1.99c 0.11 -0.63 0.29 -0.95 0.94 -0.95l 11.24 0 0.58 -3.51 -0.37 0 -16.9 0c -0.78 0 -0.93 0.49 -1.01 0.94l -3.06 17.15 18.58 0 0.67 -3.73 -11.7 0c -0.21 0 -0.37 -0.06 -0.48 -0.19m 31.77 -12.79c -0.37 -1.35 -1.45 -1.39 -1.5 -1.39l -9.64 0 -0.26 0 -0.57 3.23 2.39 0c 0 0 0.39 0.04 0.51 0.05 -0.06 0.09 -0.18 0.31 -0.18 0.31 -0.55 0.74 -8.71 13.46 -9.06 14.01l -0.31 0.49 6.37 0c 0 0 1.43 -2.38 1.59 -2.65 0.34 0 8.23 0 8.63 0 0.13 0.34 1.04 2.67 1.04 2.67l 5.82 0 -4.82 -16.72 0 0m -2.34 10.49c -0.68 0 -5.99 0 -6.88 0 0.46 -0.82 3.44 -6.1 3.44 -6.1 0.4 -0.74 0.91 -1.02 1.24 -0.98 0.29 0.04 0.51 0.35 0.6 0.83 0 0 1.24 4.84 1.6 6.25m 32.81 -10.81l 0 -0.31 0.2 0c 0.1 0 0.25 0.01 0.25 0.14 0 0.14 -0.07 0.17 -0.2 0.17l -0.25 0m 0 0.22l 0.13 0 0.3 0.55 0.33 0 -0.33 -0.57c 0.17 -0.01 0.32 -0.1 0.32 -0.34 0 -0.3 -0.2 -0.39 -0.54 -0.39l -0.49 0 0 1.31 0.28 0 0 -0.55m 1.42 -0.1c 0 -0.77 -0.57 -1.21 -1.21 -1.21 -0.64 0 -1.22 0.45 -1.22 1.21 0 0.77 0.58 1.21 1.22 1.21 0.64 0 1.21 -0.45 1.21 -1.21m -0.35 0c 0 0.56 -0.4 0.93 -0.87 0.93l 0 0c -0.48 0 -0.87 -0.37 -0.87 -0.93 0 -0.56 0.39 -0.93 0.87 -0.93 0.47 0 0.87 0.37 0.87 0.93 z" id="PATH66" style="fill:#ffffff;fill-rule:evenodd"/>
	<path d="m 680.6 477.79c 1.7 6.29 -11.51 17.2 -14.16 20.26 -0.02 0.34 4.01 0.79 4.69 0.8 0.85 0.01 1.41 -0.33 2.04 -0.69 5.88 -3.34 23.25 -15.46 22.14 -21.02 -1.15 -5.73 -13.85 -13.03 -26.97 -18.64 -10.32 -4.25 -21.93 -8.16 -25.97 -9.25 -0.28 -0.11 -1.19 1.67 -1.05 1.91 0.17 0.29 36.23 15.37 39.29 26.63 z" id="PATH67" style="fill:#ff4000;fill-rule:evenodd"/>
</svg>
